# xmcd
#
# Track frame offsets:
#	150
#	11943
#	24498
#	35655
#	49688
#	63345
#	77578
#	90318
#	100813
#	116558
#	131780
#	140360
#	142775
#	153960
#	164723
#	168995
#	182688
#	196603
#	209315
#	223820
#	237890
#	252270
#	252653
#	263488
#	266108
#	268230
#	281463
#	292595
#	306445
#	318655
#
# Disc length: 4432 seconds
#
# Revision: 1
# Processed by: cddbd v1.5.2PL0 Copyright (c) Steve Scherf et al.
# Submitted via: EZCDAudioConverter 1.3.4.1
#
DISCID=b5114e1e
DTITLE=Beach Boys - Pet Sounds Sessions 3/3
DYEAR=1966
DGENRE=
TTITLE0=Wouldn't It Be Nice [Stack-O-Vocals]
TTITLE1=You Still Believe In Me [Stack-O-Vocals]
TTITLE2=That's Not Me [Stack-O-Vocals]
TTITLE3=Don't Talk (Put Your Head On My Shoulder) [Stack-O-Vocals]
TTITLE4=I'm Waiting For The Day [Stack-O-Vocals]
TTITLE5=Sloop John B [Stack-O-Vocals]
TTITLE6=God Only Knows [Stack-O-Vocals]
TTITLE7=I Know There's An Answer [Stack-O-Vocals]
TTITLE8=Here Today [Stack-O-Vocals]
TTITLE9=I Just Wasn't Made For These Times [Stack-O-Vocals]
TTITLE10=Caroline, No [Stack-O-Vocals]
TTITLE11=Caroline, No [Promotional Spot #1]
TTITLE12=Wouldn't It Be Nice [Mono]
TTITLE13=You Still Believe In Me [Mono]
TTITLE14=Don't Talk... [Vocal Snippet]
TTITLE15=I'm Waiting For The Day [Mike Sings Lead]
TTITLE16=Sloop John B [Carl Sings First Verse]
TTITLE17=God Only Knows [Sax Solo]
TTITLE18=Hang On To Your Ego [Mono]
TTITLE19=Here Today [Mono]
TTITLE20=I Just Wasn't Made For These Times [Mono]
TTITLE21=Banana and Louie
TTITLE22=Caroline, No [Original Speed, Stereo Mix]
TTITLE23=Dog Barking Session [Outtakes]
TTITLE24=Caroline, No [Promotional Spot #2]
TTITLE25=God Only Knows [With A Capella Tag]
TTITLE26=Wouldn't It Be Nice [Mono]
TTITLE27=Sloop John B [Brian Sings Lead Throughout]
TTITLE28=God Only Knows [Brian Sings Lead]
TTITLE29=Caroline, No [Original Speed, Mono Mix]
EXTD=
EXTT0=
EXTT1=
EXTT2=
EXTT3=
EXTT4=
EXTT5=
EXTT6=
EXTT7=
EXTT8=
EXTT9=
EXTT10=
EXTT11=
EXTT12=
EXTT13=
EXTT14=
EXTT15=
EXTT16=
EXTT17=
EXTT18=
EXTT19=
EXTT20=
EXTT21=
EXTT22=
EXTT23=
EXTT24=
EXTT25=
EXTT26=
EXTT27=
EXTT28=
EXTT29=
PLAYORDER=
